<?xml version="1.0" encoding="utf-8"?>
<!-- Generator: Adobe Illustrator 15.1.0, SVG Export Plug-In . SVG Version: 6.00 Build 0)  -->
<!DOCTYPE svg PUBLIC "-//W3C//DTD SVG 1.1//EN" "http://www.w3.org/Graphics/SVG/1.1/DTD/svg11.dtd">
<svg version="1.1" id="Layer_1" xmlns="http://www.w3.org/2000/svg" xmlns:xlink="http://www.w3.org/1999/xlink" x="0px" y="0px"
	 width="64px" height="64px" viewBox="0 0 64 64" enable-background="new 0 0 64 64" xml:space="preserve">
<path id="home" fill="#666666" d="M59,34c-0.256,0-0.512-0.098-0.707-0.293L32,7.414L5.707,33.707c-0.391,0.391-1.023,0.391-1.414,0
	s-0.391-1.023,0-1.414l27-27c0.391-0.391,1.023-0.391,1.414,0l27,27c0.391,0.391,0.391,1.023,0,1.414C59.512,33.902,59.256,34,59,34
	z M55,60H37c-0.553,0-1-0.447-1-1V44h-8v15c0,0.553-0.447,1-1,1H9c-0.553,0-1-0.447-1-1V34c0-0.553,0.447-1,1-1s1,0.447,1,1v24h16
	V43c0-0.553,0.447-1,1-1h10c0.553,0,1,0.447,1,1v15h16V34c0-0.553,0.447-1,1-1s1,0.447,1,1v25C56,59.553,55.553,60,55,60z M55,25
	c-0.553,0-1-0.447-1-1V12h-6v4c0,0.553-0.447,1-1,1s-1-0.447-1-1v-5c0-0.553,0.447-1,1-1h8c0.553,0,1,0.447,1,1v13
	C56,24.553,55.553,25,55,25z"/>
</svg>
