<?xml version="1.0" encoding="utf-8"?>
<!-- Generator: Adobe Illustrator 15.1.0, SVG Export Plug-In . SVG Version: 6.00 Build 0)  -->
<!DOCTYPE svg PUBLIC "-//W3C//DTD SVG 1.1//EN" "http://www.w3.org/Graphics/SVG/1.1/DTD/svg11.dtd">
<svg version="1.1" id="Layer_1" xmlns="http://www.w3.org/2000/svg" xmlns:xlink="http://www.w3.org/1999/xlink" x="0px" y="0px"
	 width="64px" height="64px" viewBox="0 0 64 64" enable-background="new 0 0 64 64" xml:space="preserve">
<path id="map_x5F_pin" fill="#666666" d="M31,60L31,60c-0.39,0-0.743-0.227-0.907-0.579L15.73,28.478C14.586,26.156,14,23.634,14,21
	c0-9.374,7.626-17,17-17s17,7.626,17,17c0,2.633-0.585,5.155-1.738,7.499L31.907,59.421C31.743,59.773,31.39,60,31,60z M31,6
	c-8.271,0-15,6.729-15,15c0,2.323,0.516,4.549,1.534,6.614L31,56.625l13.455-28.989C45.482,25.55,46,23.324,46,21
	C46,12.729,39.271,6,31,6z M31,28c-3.859,0-7-3.141-7-7s3.141-7,7-7c3.859,0,7,3.141,7,7S34.859,28,31,28z M31,16
	c-2.757,0-5,2.243-5,5s2.243,5,5,5s5-2.243,5-5S33.757,16,31,16z"/>
</svg>
