<?xml version="1.0" encoding="utf-8"?>
<!-- Generator: Adobe Illustrator 15.1.0, SVG Export Plug-In  -->
<!DOCTYPE svg PUBLIC "-//W3C//DTD SVG 1.1//EN" "http://www.w3.org/Graphics/SVG/1.1/DTD/svg11.dtd" [
	<!ENTITY ns_flows "http://ns.adobe.com/Flows/1.0/">
]>
<svg version="1.1"
	 xmlns="http://www.w3.org/2000/svg" xmlns:xlink="http://www.w3.org/1999/xlink" xmlns:a="http://ns.adobe.com/AdobeSVGViewerExtensions/3.0/"
	 x="0px" y="0px" width="64px" height="64px" viewBox="0 0 64 64" style="enable-background:new 0 0 64 64;" xml:space="preserve">
<style type="text/css">
<![CDATA[
	.st0{display:none;opacity:0.5;fill:#E42320;}
	.st1{fill:#666666;}
]]>
</style>
<defs>
</defs>
<path class="st1" d="M29,10h6c0.55,0,1-0.45,1-1s-0.45-1-1-1h-6c-0.55,0-1,0.45-1,1S28.45,10,29,10z"/>
<path class="st1" d="M33,54h-2c-0.55,0-1,0.45-1,1s0.45,1,1,1h2c0.55,0,1-0.45,1-1S33.55,54,33,54z"/>
<path class="st1" d="M32,60c11.51,0,16-1.96,16-7V11c0-5.04-4.49-7-16-7s-16,1.96-16,7v42C16,58.04,20.49,60,32,60z M46,50H18V14h28
	V50z M32,58c-12.92,0-14-2.58-14-5v-1h28v1C46,55.42,44.92,58,32,58z M32,6c12.92,0,14,2.58,14,5v1H18v-1C18,8.58,19.08,6,32,6z"/>
<rect id="mobile_2_" class="st0" width="64" height="64"/>
</svg>
