<?xml version="1.0" encoding="utf-8"?>
<!-- Generator: Adobe Illustrator 15.1.0, SVG Export Plug-In . SVG Version: 6.00 Build 0)  -->
<!DOCTYPE svg PUBLIC "-//W3C//DTD SVG 1.1//EN" "http://www.w3.org/Graphics/SVG/1.1/DTD/svg11.dtd">
<svg version="1.1" id="Layer_1" xmlns="http://www.w3.org/2000/svg" xmlns:xlink="http://www.w3.org/1999/xlink" x="0px" y="0px"
	 width="64px" height="64px" viewBox="0 0 64 64" enable-background="new 0 0 64 64" xml:space="preserve">
<path id="sliders_x5F_up" fill="#666666" d="M18,21c0-3.52-2.613-6.433-6-6.92V7c0-0.553-0.448-1-1-1s-1,0.447-1,1v7.08
	c-3.387,0.487-6,3.4-6,6.92s2.613,6.433,6,6.92V57c0,0.553,0.448,1,1,1s1-0.447,1-1V27.92C15.387,27.433,18,24.52,18,21z M11,26
	c-2.757,0-5-2.243-5-5s2.243-5,5-5s5,2.243,5,5S13.757,26,11,26z M38,43c0-3.52-2.613-6.434-6-6.92V7c0-0.553-0.448-1-1-1
	s-1,0.447-1,1v29.08c-3.387,0.486-6,3.4-6,6.92s2.613,6.434,6,6.92V57c0,0.553,0.448,1,1,1s1-0.447,1-1v-7.08
	C35.387,49.434,38,46.52,38,43z M31,48c-2.757,0-5-2.243-5-5s2.243-5,5-5s5,2.243,5,5S33.757,48,31,48z M58,29
	c0-3.52-2.613-6.433-6-6.92V7c0-0.553-0.448-1-1-1s-1,0.447-1,1v15.08c-3.387,0.487-6,3.4-6,6.92c0,3.52,2.613,6.434,6,6.92V57
	c0,0.553,0.448,1,1,1s1-0.447,1-1V35.92C55.387,35.434,58,32.52,58,29z M51,34c-2.757,0-5-2.243-5-5s2.243-5,5-5s5,2.243,5,5
	S53.757,34,51,34z"/>
</svg>
