<?xml version="1.0" encoding="utf-8"?>
<!-- Generator: Adobe Illustrator 15.1.0, SVG Export Plug-In  -->
<!DOCTYPE svg PUBLIC "-//W3C//DTD SVG 1.1//EN" "http://www.w3.org/Graphics/SVG/1.1/DTD/svg11.dtd" [
	<!ENTITY ns_flows "http://ns.adobe.com/Flows/1.0/">
]>
<svg version="1.1"
	 xmlns="http://www.w3.org/2000/svg" xmlns:xlink="http://www.w3.org/1999/xlink" xmlns:a="http://ns.adobe.com/AdobeSVGViewerExtensions/3.0/"
	 x="0px" y="0px" width="64px" height="64px" viewBox="0 0 64 64" style="enable-background:new 0 0 64 64;" xml:space="preserve">
<style type="text/css">
<![CDATA[
	.st0{display:none;opacity:0.5;fill:#E42320;}
	.st1{fill:#666666;}
]]>
</style>
<defs>
</defs>
<path class="st1" d="M11.52,52.69c0.21,0.22,0.51,0.31,0.79,0.29c0.03,0,0.06,0.02,0.08,0.02c0.26,0,0.51-0.1,0.71-0.29l3.38-3.38
	c0.39-0.39,0.39-1.02,0-1.41c-0.39-0.39-1.02-0.39-1.41,0l-2.73,2.73C8.47,46.3,6.25,40.81,6.02,35H9c0.55,0,1-0.45,1-1s-0.45-1-1-1
	H6.03c0.24-6.14,2.71-11.72,6.62-15.95l2.65,2.65C15.49,19.9,15.74,20,16,20s0.51-0.1,0.71-0.29c0.39-0.39,0.39-1.02,0-1.41
	l-2.65-2.65c4.23-3.91,9.81-6.37,15.95-6.61V12c0,0.55,0.45,1,1,1s1-0.45,1-1V9.03c6.14,0.24,11.72,2.71,15.95,6.61l-2.65,2.65
	c-0.39,0.39-0.39,1.02,0,1.41C45.49,19.9,45.74,20,46,20s0.51-0.1,0.71-0.29l2.65-2.65c3.91,4.23,6.37,9.81,6.62,15.95H53
	c-0.55,0-1,0.45-1,1s0.45,1,1,1h2.98c-0.23,5.77-2.42,11.23-6.25,15.55l-2.65-2.65c-0.39-0.39-1.02-0.39-1.41,0
	c-0.39,0.39-0.39,1.02,0,1.41l3.38,3.38c0,0,0.01,0,0.01,0.01c0,0,0,0.01,0.01,0.01c0.06,0.06,0.14,0.09,0.21,0.13
	c0.04,0.02,0.07,0.06,0.11,0.07c0.12,0.05,0.25,0.07,0.37,0.07c0.13,0,0.26-0.03,0.38-0.08c0.04-0.02,0.08-0.05,0.12-0.08
	c0.07-0.04,0.15-0.08,0.21-0.14c0,0,0-0.01,0.01-0.01c0,0,0.01,0,0.01-0.01C55.33,47.64,58,41,58,34c0-7.42-3.01-14.15-7.87-19.03
	c-0.02-0.02-0.02-0.04-0.04-0.06s-0.04-0.02-0.06-0.04C45.15,10.01,38.42,7,31,7s-14.15,3.01-19.03,7.87
	c-0.02,0.02-0.04,0.02-0.06,0.04s-0.02,0.04-0.04,0.06C7.01,19.85,4,26.58,4,34C4,41,6.67,47.64,11.52,52.69z"/>
<path class="st1" d="M30,37c2.21,0,4-1.79,4-4s-1.79-4-4-4c-0.74,0-1.42,0.22-2.02,0.57l-8.27-8.27c-0.39-0.39-1.02-0.39-1.41,0
	c-0.39,0.39-0.39,1.02,0,1.41l8.27,8.27C26.22,31.58,26,32.26,26,33C26,35.21,27.79,37,30,37z M32,33c0,1.1-0.9,2-2,2s-2-0.9-2-2
	c0-0.55,0.22-1.05,0.58-1.41c0,0,0,0,0.01,0s0,0,0-0.01C28.95,31.22,29.45,31,30,31C31.1,31,32,31.9,32,33z"/>
<rect id="speedometer_1_" class="st0" width="64" height="64"/>
</svg>
