<?xml version="1.0" encoding="utf-8"?>
<!-- Generator: Adobe Illustrator 18.1.1, SVG Export Plug-In . SVG Version: 6.00 Build 0)  -->
<svg version="1.1" id="Layer_1" xmlns="http://www.w3.org/2000/svg" xmlns:xlink="http://www.w3.org/1999/xlink" x="0px" y="0px"
	 width="255.1px" height="513px" viewBox="60 -215 255.1 513" enable-background="new 60 -215 255.1 513" xml:space="preserve"
	 fill="rgba(255,255,255,0.5)" >
<g>
	<path d="M272.1-212.5c21.2,0,38.5,17.3,38.5,38.5v70c0,1.3,1.2,1.7,2,1.9c0,3.4,0,6.9,0,10.4c0,7.5,0,15.3,0,23.8
		c-0.8,0.2-2,0.6-2,1.9c-0.3,126.1,0,321.1,0,323c0,21.2-17.3,38.5-38.5,38.5h-169c-21.2,0-38.5-17.3-38.5-38.5V-19
		c0-0.9-0.6-1.4-1.5-2.2c-0.1-0.1-0.3-0.3-0.5-0.4l0-5.7c0-9.9,0-19.2,0.1-28.9c0.8-0.3,1.9-0.7,1.9-1.9c0-1.3,0-2.5,0-3.8
		c0-1.1,0-2.2,0-3.2c0-1.2-1.1-1.6-2-1.9c0-5.4,0-10.8,0-16c0-7.1-0.1-13.9,0-20.1c0.1,0,0.3,0.1,0.5,0.1c0.4,0,1.5,0,1.5-2l0,0
		c-0.1-2-0.1-11.2,0-22c0-0.9-0.6-1.4-1-1.6c0-2.4,0-4.8,0-7.3c-0.1-3.5-0.1-7,0-10.4c0.7-0.4,1-1,1-1.7v-26
		c0-21.2,17.3-38.5,38.5-38.5H272.1 M272.1-214h-169c-22.1,0-40,17.9-40,40c0,0,0,12.4,0,26c0,0.6-1,0.4-1,1c-0.3,6.2,0.1,12.9,0,19
		c0,0.3,1,0.7,1,1c-0.2,10.9-0.1,20,0,22.1c0,0,0-0.1,0-0.1c0,0.4,0,0.6,0,0.6c0,0,0-0.2,0-0.5c-0.3,0.3-2,0.6-2,0.9
		c-0.2,11.4,0.1,24.8,0,38c0,0.3,2,0.7,2,1c0,2.3,0,4.6,0,7c0,0.3-1.9,0.7-1.9,1c-0.2,12-0.1,23.6-0.1,36c0,0.4,2,1.7,2,2
		c0,123.6,0,276,0,276c0,22.1,17.9,40,40,40h169c22.1,0,40-17.9,40-40c0,0-0.3-195.4,0-323c0-0.4,2-0.6,2-1c0-13.1,0-24.6,0-36
		c0-0.4-2-0.6-2-1c0-41.4,0-70,0-70C312.1-196.1,294.2-214,272.1-214L272.1-214z"/>
</g>
</svg>
