<?xml version="1.0" encoding="utf-8"?>
<!-- Generator: Adobe Illustrator 18.1.1, SVG Export Plug-In . SVG Version: 6.00 Build 0)  -->
<svg version="1.1" id="Layer_1" xmlns="http://www.w3.org/2000/svg" xmlns:xlink="http://www.w3.org/1999/xlink" x="0px" y="0px"
	 width="106.9px" height="17.3px" viewBox="42 -2.3 106.9 17.3" enable-background="new 42 -2.3 106.9 17.3" xml:space="preserve"
	 fill="#ffffff">
<path d="M141.3,3.5c0.2,0.4,0.5,0.7,0.9,0.9s0.8,0.5,1.3,0.7c0.5,0.2,1,0.4,1.5,0.6c0.5,0.2,1,0.4,1.5,0.7c0.5,0.2,0.9,0.5,1.3,0.9
	c0.4,0.3,0.7,0.8,0.9,1.3c0.2,0.5,0.3,1.1,0.3,1.8v0.5c0,0.6-0.1,1.1-0.3,1.6c-0.2,0.5-0.5,0.9-0.9,1.3c-0.4,0.4-0.8,0.7-1.3,0.9
	c-0.5,0.2-1.1,0.3-1.6,0.3h-1.2c-0.6,0-1.1-0.1-1.6-0.3c-0.5-0.2-1-0.5-1.3-0.9c-0.4-0.4-0.7-0.8-0.9-1.3c-0.2-0.5-0.3-1-0.3-1.6
	v-0.7l1.5-0.2v0.9c0,0.4,0.1,0.7,0.2,1c0.2,0.3,0.4,0.6,0.6,0.9s0.6,0.4,0.9,0.6c0.3,0.1,0.7,0.2,1.1,0.2h1.1c0.4,0,0.7-0.1,1.1-0.2
	c0.3-0.1,0.6-0.3,0.9-0.6c0.3-0.2,0.5-0.5,0.6-0.9c0.2-0.3,0.2-0.7,0.2-1v-0.5c0-0.6-0.1-1.1-0.3-1.4c-0.2-0.4-0.5-0.7-0.9-1
	c-0.4-0.3-0.8-0.5-1.3-0.7c-0.5-0.2-1-0.4-1.5-0.6c-0.5-0.2-1-0.4-1.5-0.6c-0.5-0.2-0.9-0.5-1.3-0.8c-0.4-0.3-0.7-0.8-0.9-1.2
	c-0.2-0.5-0.3-1.1-0.3-1.8V1.8c0-0.6,0.1-1.1,0.3-1.6c0.2-0.5,0.5-0.9,0.9-1.3s0.8-0.7,1.3-0.9s1-0.3,1.6-0.3h1.1
	c0.6,0,1.1,0.1,1.6,0.3s0.9,0.5,1.3,0.9s0.7,0.8,0.9,1.3c0.2,0.5,0.3,1,0.3,1.6v0.4l-1.5,0.2V1.8c0-0.4-0.1-0.7-0.2-1
	c-0.1-0.3-0.3-0.6-0.6-0.8c-0.2-0.2-0.5-0.4-0.8-0.6c-0.3-0.1-0.7-0.2-1-0.2h-0.9c-0.4,0-0.7,0.1-1,0.2c-0.3,0.1-0.6,0.3-0.9,0.6
	c-0.2,0.2-0.4,0.5-0.6,0.8c-0.1,0.3-0.2,0.7-0.2,1v0.3C140.9,2.7,141,3.1,141.3,3.5z M129.5-2.1h1.5v16.8h-1.5V-2.1z M120.2,13.8
	c-0.4,0.4-0.8,0.7-1.3,0.9c-0.5,0.2-1.1,0.3-1.6,0.3H116c-0.6,0-1.1-0.1-1.6-0.3s-1-0.5-1.3-0.9c-0.4-0.4-0.7-0.8-0.9-1.3
	c-0.2-0.5-0.3-1-0.3-1.6v-0.7l1.5-0.2v0.9c0,0.4,0.1,0.7,0.2,1c0.2,0.3,0.4,0.6,0.6,0.9c0.3,0.2,0.6,0.4,0.9,0.6
	c0.3,0.1,0.7,0.2,1.1,0.2h1.1c0.4,0,0.7-0.1,1.1-0.2c0.3-0.1,0.6-0.3,0.9-0.6c0.3-0.2,0.5-0.5,0.6-0.9c0.2-0.3,0.2-0.7,0.2-1v-0.5
	c0-0.6-0.1-1.1-0.3-1.4c-0.2-0.4-0.5-0.7-0.9-1c-0.4-0.3-0.8-0.5-1.3-0.7c-0.5-0.2-1-0.4-1.5-0.6c-0.5-0.2-1-0.4-1.5-0.6
	c-0.5-0.2-0.9-0.5-1.3-0.8c-0.4-0.3-0.7-0.8-0.9-1.2c-0.2-0.5-0.3-1.1-0.3-1.8V1.8c0-0.6,0.1-1.1,0.3-1.6c0.2-0.5,0.5-0.9,0.9-1.3
	s0.8-0.7,1.3-0.9c0.5-0.2,1-0.3,1.6-0.3h1.1c0.6,0,1.1,0.1,1.6,0.3s0.9,0.5,1.3,0.9s0.7,0.8,0.9,1.3c0.2,0.5,0.3,1,0.3,1.6v0.4
	l-1.5,0.2V1.8c0-0.4-0.1-0.7-0.2-1c-0.1-0.3-0.3-0.6-0.6-0.8c-0.2-0.2-0.5-0.4-0.8-0.6c-0.3-0.1-0.7-0.2-1-0.2h-0.9
	c-0.4,0-0.7,0.1-1,0.2c-0.3,0.1-0.6,0.3-0.9,0.6c-0.2,0.2-0.4,0.5-0.6,0.8c-0.1,0.3-0.2,0.7-0.2,1v0.3c0,0.5,0.1,1,0.3,1.4
	c0.2,0.4,0.5,0.7,0.9,0.9s0.8,0.5,1.3,0.7c0.5,0.2,1,0.4,1.5,0.6c0.5,0.2,1,0.4,1.5,0.7c0.5,0.2,0.9,0.5,1.3,0.9
	c0.4,0.3,0.7,0.8,0.9,1.3c0.2,0.5,0.3,1.1,0.3,1.8v0.5c0,0.6-0.1,1.1-0.3,1.6C120.9,13,120.6,13.4,120.2,13.8z M95.1-2.1h9.5v1.4
	h-7.9v6.2h6.4v1.4h-6.4v6.2h7.9v1.4h-9.5V-2.1z M78.6,2.5l-0.1-0.7v13H77V-2.1h0.8l7,12.2l0.2,0.7v-13h1.5v16.8h-0.8L78.6,2.5z
	 M59.9-2.1h9.5v1.4h-7.9v6.2h6.4v1.4h-6.4v6.2h7.9v1.4h-9.5V-2.1z M50.1,13.4c-0.4,0.5-0.8,0.9-1.3,1.2C48.2,14.8,47.6,15,47,15
	h-0.9c-0.6,0-1.1-0.1-1.6-0.3c-0.5-0.2-0.9-0.5-1.3-0.9c-0.4-0.4-0.7-0.8-0.9-1.3s-0.3-1-0.3-1.6v-9c0-0.6,0.1-1.1,0.3-1.6
	c0.2-0.5,0.5-0.9,0.9-1.3C43.6-1.5,44-1.8,44.5-2c0.5-0.2,1-0.3,1.6-0.3h1.2c0.6,0,1.1,0.1,1.6,0.3s0.9,0.5,1.3,0.9s0.7,0.8,0.9,1.3
	c0.2,0.5,0.3,1,0.3,1.6v0.7l-1.5,0.2V1.8c0-0.4-0.1-0.7-0.2-1c-0.1-0.3-0.3-0.6-0.6-0.8c-0.2-0.2-0.5-0.4-0.9-0.6
	c-0.3-0.1-0.7-0.2-1-0.2h-1.1c-0.4,0-0.7,0.1-1,0.2c-0.3,0.1-0.6,0.3-0.9,0.6c-0.2,0.2-0.4,0.5-0.6,0.8c-0.1,0.3-0.2,0.7-0.2,1v9
	c0,0.4,0.1,0.7,0.2,1c0.1,0.3,0.3,0.6,0.6,0.9c0.2,0.2,0.5,0.4,0.9,0.6c0.3,0.1,0.7,0.2,1,0.2h1.1c0.4,0,0.7-0.1,1-0.2
	c0.3-0.1,0.6-0.3,0.9-0.6s0.4-0.5,0.6-0.9c0.1-0.3,0.2-0.7,0.2-1V7.4h-2.7V5.9h4.2v8.8H51L50.1,13.4z"/>
</svg>
