<?xml version="1.0" encoding="UTF-8" standalone="no"?>
<svg
  xmlns:dc="http://purl.org/dc/elements/1.1/"
  xmlns:cc="http://creativecommons.org/ns#"
  xmlns:rdf="http://www.w3.org/1999/02/22-rdf-syntax-ns#"
  xmlns:svg="http://www.w3.org/2000/svg"
  xmlns="http://www.w3.org/2000/svg"
  viewBox="0 0 1000 1000"
  height="1000px"
  width="1000px"
  x="0px"
  y="0px"
  version="1.1"
  id="svg2"
  enable-background="new 0 0 1000 1000"
  xml:space="preserve"
  fill-opacity = "0.2"
  >

  <defs>
      <filter id="f1" x="0" y="0">
        <feGaussianBlur in="SourceGraphic" stdDeviation="4" />
      </filter>
  </defs>

<g
  transform="matrix(1.25,0,0,-1.25,0,1000)"
  id="g10"
  >

<g transform="translate(692.54,556.5469)">
<g class='rotate'>
<g transform="translate(25,0)">
<g
  id="g576">
  <path
  id="path578"
  style="fill:#419189;fill-opacity:1;fill-rule:nonzero;stroke:none;"
  d="M 0,0 -44.117,-15.72 -34.025,25.554 0,0 Z"
  />
</g>
</g>
</g>
</g>

<g transform="translate(708.333,437.1147)">
<g class='rotate'>
<g transform="translate(20,18)">
<g
  id="g580"><path
  id="path582"
  style="fill:#ddc158;fill-opacity:1;fill-rule:nonzero;stroke:none"
  d="M 0,0 -23.221,-40.671 -42.461,-2.788 0,0 Z"
 />
</g>
</g>
</g>
</g>

<g transform="translate(81.4287,301.8574)">
<g class='rotate'>
<g transform="translate(15,10)">
<g
  id="g584">
<path
  id="path586"
  style="fill:#ddc158;fill-opacity:1;fill-rule:nonzero;stroke:none"
  d="M 0,0 -14.685,-25.72 -28.215,-0.985 0,0 Z" />
</g>
</g>
</g>
</g>

<g transform="translate(274.4482,574.4561)">
<g class='rotate' >
<g transform="translate(-35,-105)">
<g
  transform="translate(0,0)"
  id="g588">
  <path
  id="path590"
  style="fill:#2f8650;fill-opacity:1;fill-rule:nonzero;stroke:none"
  d="M 0,0 21.708,191.871 109.682,62.836 0,0 Z" />
</g>
<g
  transform="translate(21.7081,191.871)"
  id="g592">
  <path
  id="path594"
  style="fill:#48b26b;fill-opacity:1;fill-rule:nonzero;stroke:none"
  d="M 0,0 103.122,-66.79 87.974,-129.035 0,0 Z" />
</g>
</g>
</g>
</g>

<g transform="translate(414.3525,622.0078)">
<g class='rotate'>
<g transform="translate(50,75)">
<g
  transform="translate(0,0)"
  id="g596"><path
  id="path598"
  style="fill:#357d76;fill-opacity:1;fill-rule:nonzero;stroke:none"
  d="M 0,0 -40.65,-146.885 -93.269,-35.418 0,0 Z" />
</g>
<g
  transform="translate(-40.6504,-146.8848)"
  id="g600"><path
  id="path602"
  style="fill:#4ba59c;fill-opacity:1;fill-rule:nonzero;stroke:none"
  d="M 0,0 -72.128,64.818 -52.619,111.467 0,0 Z" />
</g>
</g>
</g>
</g>

<g transform="translate(199.8223,278.8242)">
<g class='rotate'>
<g transform="translate(-100,20)">
<g
  transform="translate(0,0)"
  id="g604"><path
  id="path606"
  style="fill:#357d76;fill-opacity:1;fill-rule:nonzero;stroke:none"
  d="M 0,0 180.479,41.788 91.94,-79.082 0,0 Z" />
</g>
<g
  transform="translate(180.4695,41.7881)"
  id="g608"><path
  id="path610"
  style="fill:#4ba59c;fill-opacity:1;fill-rule:nonzero;stroke:none"
  d="M 0,0 -27.395,-114.646 -88.539,-120.87 0,0 Z" />
</g>
</g>
</g>
</g>

<g transform="translate(490.6182,200.8213)">
<g class='rotate'>
<g transform="translate(-110,-40)">
<g
  transform="translate(0,0)"
  id="g612"><path
  id="path614"
  style="fill:#2f8650;fill-opacity:1;fill-rule:nonzero;stroke:none"
  d="M 0,0 180.922,-7.062 73.781,92.761 0,0 Z" />
</g>
<g
  transform="translate(180.9218,-7.0615)"
  id="g616"><path
  id="path618"
  style="fill:#3b9b5d;fill-opacity:1;fill-rule:nonzero;stroke:none"
  d="M 0,0 -47.297,105.046 -107.141,99.822 0,0 Z" />
</g>
</g>
</g>
</g>

<g transform="translate(241.2588,213.5811)">
<g class='rotate'>
<g transform="translate(20,60)">
<g
  transform="translate(0,0)"
  id="g620"><path
  id="path622"
  style="fill:#ddc158;fill-opacity:1;fill-rule:nonzero;stroke:none"
  d="M 0,0 -71.197,-82.387 -49.495,-92.659 0,0 Z" />
</g>
<g
  transform="translate(0,0)"
  id="g624"><path
  id="path626"
  style="fill:#bea84d;fill-opacity:1;fill-rule:nonzero;stroke:none"
  d="M 0,0 -26.708,-134.598 -49.495,-92.659 0,0 Z" />
</g>
<g
  transform="translate(-71.1973,-82.3868)"
  id="g628"><path
  id="path630"
  style="fill:#a39041;fill-opacity:1;fill-rule:nonzero;stroke:none"
  d="M 0,0 44.489,-52.211 21.702,-10.272 0,0 Z" />
</g>
</g>
</g>
</g>

<g transform="translate(497.1416,139.1416)">
<g class='rotate'>
<g transform="translate(-60,60)">
<g
  transform="translate(0,0)"
  id="g632"><path
  id="path634"
  style="fill:#f05e3d;fill-opacity:1;fill-rule:nonzero;stroke:none"
  d="M 0,0 52.789,-95.235 69.914,-78.405 0,0 Z" />
</g>
<g
  transform="translate(0,0)"
  id="g636"><path
  id="path638"
  style="fill:#dc4a29;fill-opacity:1;fill-rule:nonzero;stroke:none"
  d="M 0,0 117.137,-71.475 69.914,-78.405 0,0 Z" />
</g>
<g
  transform="translate(52.7791,-95.2354)"
  id="g640"><path
  id="path642"
  style="fill:#c73514;fill-opacity:1;fill-rule:nonzero;stroke:none"
  d="M 0,0 64.348,23.761 17.125,16.83 0,0 Z" />
</g>
</g>
</g>
</g>

<g transform="translate(287.0986,220.5635)">
<g class='rotate'>
<g transform="translate(0,-90)">
<g
  transform="translate(0,0)"
  id="g644"><path
  id="path646"
  style="fill:#b84b2b;fill-opacity:1;fill-rule:nonzero;stroke:none"
  d="M 0,0 30.864,107.827 6.134,108.029 0,0 Z" />
</g>
<g
  transform="translate(0,0)"
  id="g648"><path
  id="path650"
  style="fill:#a43717;fill-opacity:1;fill-rule:nonzero;stroke:none"
  d="M 0,0 -33.322,137.357 6.134,108.029 0,0 Z" />
</g>
<g
  transform="translate(30.8646,107.8271)"
  id="g652"><path
  id="path654"
  style="fill:#8f2202;fill-opacity:1;fill-rule:nonzero;stroke:none"
  d="M 0,0 -64.186,29.53 -24.73,0.202 0,0 Z" />
</g>
</g>
</g>
</g>

<g transform="translate(681.6748,571.2148)">
<g class='rotate'>
<g transform="translate(0,-50)">
<g
  transform="translate(0,0)"
  id="g656"><path
  id="path658"
  style="fill:#a43717;fill-opacity:1;fill-rule:nonzero;stroke:none"
  d="M 0,0 21.172,73.967 4.207,74.106 0,0 Z" />
</g>
<g
  transform="translate(0,0)"
  id="g660"><path
  id="path662"
  style="fill:#b84b2b;fill-opacity:1;fill-rule:nonzero;stroke:none"
  d="M 0,0 -22.857,94.224 4.207,74.106 0,0 Z" />
</g>
<g
  transform="translate(21.1719,73.9668)"
  id="g664"><path
  id="path666"
  style="fill:#8f2202;fill-opacity:1;fill-rule:nonzero;stroke:none"
  d="M 0,0 -44.029,20.257 -16.965,0.139 0,0 Z" />
</g>
</g>
</g>
</g>

<g transform="translate(324.2548,210.5391)">
<g class='rotate'>
<g transform="translate(0,-130)">
<g
  transform="translate(0,0)"
  id="g668"><path
  id="path670"
  style="fill:#ddc158;fill-opacity:1;fill-rule:nonzero;stroke:none"
  d="m 0,0 99.483,178.684 -81.923,0 L 0,0 Z" />
</g>
<g
  transform="translate(0,0)"
  id="g672"><path
  id="path674"
  style="fill:#bea84d;fill-opacity:1;fill-rule:nonzero;stroke:none"
  d="M 0,0 -45.853,230.008 17.56,178.684 0,0 Z" />
</g>
<g
  transform="translate(99.4834,178.6845)"
  id="g676"><path
  id="path678"
  style="fill:#357d76;fill-opacity:1;fill-rule:nonzero;stroke:none"
  d="M 0,0 -145.336,51.323 -81.924,0 0,0 Z" />
</g>
</g>
</g>
</g>

<g transform="translate(600.083,566.5674)">
<g class='rotate'>
<g transform="translate(0,0)">
<g
  transform="translate(0,0)"
  id="g680"><path
  id="path682"
  style="fill:#bea84d;fill-opacity:1;fill-rule:nonzero;stroke:none"
  d="M 0,0 12.445,-104.027 -127.299,-50.798 0,0 Z" />
</g>
<g
  transform="translate(12.4453,-104.0274)"
  id="g684"><path
  id="path686"
  style="fill:#a39041;fill-opacity:1;fill-rule:nonzero;stroke:none"
  d="M 0,0 23.246,169.949 -12.445,104.027 0,0 Z" />
</g>
<g
  transform="translate(35.6914,65.9219)"
  id="g688"><path
  id="path690"
  style="fill:#ddc158;fill-opacity:1;fill-rule:nonzero;stroke:none"
  d="M 0,0 -162.99,-116.72 -35.691,-65.922 0,0 Z" />
</g>
</g>
</g>
</g>

<g transform="translate(176.0283,208.958)">
<g class='rotate'>
<g transform="translate(0,0)">
<g
  transform="translate(0,0)"
  id="g692"><path
  id="path694"
  style="fill:#dc4a29;fill-opacity:1;fill-rule:nonzero;stroke:none"
  d="M 0,0 46.333,0 15.617,-58.565 0,0 Z" />
</g>
<g
  transform="translate(46.333,0)"
  id="g696"><path
  id="path698"
  style="fill:#c73514;fill-opacity:1;fill-rule:nonzero;stroke:none"
  d="M 0,0 -73.404,19.134 -46.333,0 0,0 Z" />
</g>
<g
  transform="translate(-27.0713,19.1338)"
  id="g700"><path
  id="path702"
  style="fill:#f05e3d;fill-opacity:1;fill-rule:nonzero;stroke:none"
  d="M 0,0 42.688,-77.699 27.071,-19.134 0,0 Z" />
</g>
</g>
</g>
</g>

<g transform="translate(583.1318,201.4277)">
<g class='rotate'>
<g transform="translate(0,0)">
<g
  transform="translate(0,0)"
  id="g704"><path
  id="path706"
  style="fill:#dc4a29;fill-opacity:1;fill-rule:nonzero;stroke:none"
  d="M 0,0 39.481,0 13.309,-49.904 0,0 Z" />
</g>
<g
  transform="translate(39.4805,0)"
  id="g708"><path
  id="path710"
  style="fill:#c73514;fill-opacity:1;fill-rule:nonzero;stroke:none"
  d="M 0,0 -62.547,16.303 -39.481,0 0,0 Z" />
</g>
<g
  transform="translate(-23.0664,16.3028)"
  id="g712"><path
  id="path714"
  style="fill:#f05e3d;fill-opacity:1;fill-rule:nonzero;stroke:none"
  d="M 0,0 36.375,-66.207 23.066,-16.303 0,0 Z" />
</g>
</g>
</g>
</g>

<g transform="translate(648.1045,508.8154)">
<g class='rotate'>
<g transform="translate(0,0)">
<g
  transform="translate(0,0)"
  id="g716"><path
  id="path718"
  style="fill:#419189;fill-opacity:1;fill-rule:nonzero;stroke:none"
  d="M 0,0 57.342,-7.853 -0.607,-58.211 0,0 Z" />
</g>
<g
  transform="translate(57.3418,-7.8525)"
  id="g720"><path
  id="path722"
  style="fill:#357d76;fill-opacity:1;fill-rule:nonzero;stroke:none"
  d="M 0,0 -77.473,32.521 -57.342,7.853 0,0 Z" />
</g>
<g
  transform="translate(-20.1309,24.668)"
  id="g724"><path
  id="path726"
  style="fill:#4ba59c;fill-opacity:1;fill-rule:nonzero;stroke:none"
  d="M 0,0 19.523,-82.879 20.131,-24.668 0,0 Z" />
</g>
</g>
</g>
</g>

<g transform="translate(658.1045,538.8154)">
<g class='rotate'>
<g transform="translate(-10,-30)">
<g
  transform="translate(0,0)"
  id="g728"><path
  id="path730"
  style="fill:#419189;fill-opacity:1;fill-rule:nonzero;stroke:none"
  d="M 0,0 -17.881,55.046 52.676,24.784 0,0 Z" />
</g>
<g
  transform="translate(-17.88099,55.0459)"
  id="g732"><path
  id="path734"
  style="fill:#357d76;fill-opacity:1;fill-rule:nonzero;stroke:none"
  d="M 0,0 4.431,-83.905 17.881,-55.046 0,0 Z" />
</g>
<g
  transform="translate(-13.4502,-28.1406)"
  id="g736"><path
  id="path738"
  style="fill:#4ba59c;fill-opacity:1;fill-rule:nonzero;stroke:none"
  d="M 0,0 66.126,53.644 13.45,28.859 0,0 Z" />
</g>
</g>
</g>
</g>

<g transform="translate(526.6143,618.7246)">
<g class='rotate'>
<g transform="translate(0,0)">
<g
  transform="translate(0,0)"
  id="g740"><path
  id="path742"
  style="fill:#3b9b5d;fill-opacity:1;fill-rule:nonzero;stroke:none"
  d="M 0,0 -10.4,-67.424 -68.594,1.879 0,0 Z" />
</g>
<g
  transform="translate(-10.4004,-67.4238)"
  id="g744"><path
  id="path746"
  style="fill:#2f8650;fill-opacity:1;fill-rule:nonzero;stroke:none"
  d="M 0,0 39.875,90.656 10.4,67.424 0,0 Z" />
</g>
<g
  transform="translate(29.4746,23.2324)"
  id="g748"><path
  id="path750"
  style="fill:#48b26b;fill-opacity:1;fill-rule:nonzero;stroke:none"
  d="M 0,0 -98.068,-21.353 -29.475,-23.232 0,0 Z" />
</g>
</g>
</g>
</g>

<g transform="translate(706.0361,293.541)">
<g class='rotate'>
<g transform="translate(10,10)">
<g
  transform="translate(0,0)"
  id="g752"><path
  id="path754"
  style="fill:#419189;fill-opacity:1;fill-rule:nonzero;stroke:none"
  d="M 0,0 -7.414,-48.067 -48.9,1.34 0,0 Z" />
</g>
<g
  transform="translate(-7.414,-48.0674)"
  id="g756"><path
  id="path758"
  style="fill:#357d76;fill-opacity:1;fill-rule:nonzero;stroke:none"
  d="M 0,0 28.428,64.63 7.414,48.067 0,0 Z" />
</g>
<g
  transform="translate(21.0137,16.5625)"
  id="g760"><path
  id="path762"
  style="fill:#4ba59c;fill-opacity:1;fill-rule:nonzero;stroke:none"
  d="m 0,0 -69.914,-15.223 48.9,-1.339 L 0,0 Z" />
</g>
</g>
</g>
</g>

<g transform="translate(647.5439,209.4199)">
<g class='rotate'>
<g transform="translate(0,10)">
<g
  transform="translate(0,0)"
  id="g764"><path
  id="path766"
  style="fill:#419189;fill-opacity:1;fill-rule:nonzero;stroke:none"
  d="M 0,0 19.166,-55.996 -53.465,-26.183 0,0 Z" />
</g>
<g
  transform="translate(19.1661,-56.0961)"
  id="g768"><path
  id="path770"
  style="fill:#357d76;fill-opacity:1;fill-rule:nonzero;stroke:none"
  d="M 0,0 -5.873,85.719 -19.166,55.996 0,0 Z" />
</g>
<g
  transform="translate(13.293,29.7227)"
  id="g772"><path
  id="path774"
  style="fill:#4ba59c;fill-opacity:1;fill-rule:nonzero;stroke:none"
  d="M 0,0 -66.758,-55.905 -13.293,-29.723 0,0 Z" />
</g>
</g>
</g>
</g>

<g transform="translate(530.0928,669.0391)">
<g class='rotate'>
<g transform="translate(-30,40)">
<g
  transform="translate(0,0)"
  id="g776"><path
  id="path778"
  style="fill:#ddc158;fill-opacity:1;fill-rule:nonzero;stroke:none"
  d="M 0,0 53.043,0 26.521,-80.154 0,0 Z" />
</g>
</g>
</g>
</g>

<g transform="translate(20.3643,333.3955)">
<g class='rotate'>
<g transform="translate(-30,30)">
<g
  transform="translate(0,0)"
  id="g780"><path
  id="path782"
  style="fill:#48b26b;fill-opacity:1;fill-rule:nonzero;stroke:none"
  d="M 0,0 51.612,12.237 44.298,-71.873 0,0 Z" />
</g>
</g>
</g>
</g>

<g transform="translate(74.9658,422.0752)">
<g class='rotate'>
<g transform="translate(-18,5)">
<g
  transform="translate(0,0)"
  id="g784"><path
  id="path786"
  style="fill:#48b26b;fill-opacity:1;fill-rule:nonzero;stroke:none"
  d="M 0,0 32.496,7.704 23.153,-25.271 0,0 Z" />
</g>
</g>
</g>
</g>

<g transform="translate(695.9463,204.5156)">
<g class='rotate'>
<g transform="translate(-15,-20)">
<g
  transform="translate(0,0)"
  id="g788"><path
  id="path790"
  style="fill:#3b9b5d;fill-opacity:1;fill-rule:nonzero;stroke:none"
  d="M 0,0 17.344,50.128 35.09,19.542 0,0 Z" />
</g>
</g>
</g>
</g>

<g transform="translate(483.2939,672.8799)">
<g class='rotate'>
<g transform="translate(-20,-20)">
<g
  transform="translate(0,0)"
  id="g792"><path
  id="path794"
  style="fill:#3b9b5d;fill-opacity:1;fill-rule:nonzero;stroke:none"
  d="M 0,0 17.344,50.128 35.09,19.542 0,0 Z" />
</g>
</g>
</g>
</g>

<g transform="translate(637.5264,663.8984)">
<g class='rotate'>
<g transform="translate(-25,-20)">
<g
  transform="translate(0,0)"
  id="g796"><path
  id="path798"
  style="fill:#4ba59c;fill-opacity:1;fill-rule:nonzero;stroke:none"
  d="M 0,0 17.344,50.128 52.891,9.433 0,0 Z" />
</g>
</g>
</g>
</g>

<g transform="translate(334.6289,699.5156)">
<g class='rotate'>
<g transform="translate(-5,40)">
<g
  transform="translate(0,0)"
  id="g800"><path
  id="path802"
  style="fill:#bea84d;fill-opacity:1;fill-rule:nonzero;stroke:none"
  d="M 0,0 42.857,-21.901 -11.666,-75.712 0,0 Z" />
</g>
</g>
</g>
</g>

<g transform="translate(354.502,160.0391)">
<g class='rotate'>
<g transform="translate(10,25)">
<g
  transform="translate(0,0)"
  id="g804"><path
  id="path806"
  style="fill:#dc4a29;fill-opacity:1;fill-rule:nonzero;stroke:none"
  d="M 0,0 17.479,-35.375 -44.715,-44.101 0,0 Z" />
</g>
</g>
</g>
</g>

<g transform="translate(650.1357,328.2236)">
<g class='rotate'>
<g transform="translate(-26,20)">
<g
  transform="translate(0,0)"
  id="g808"><path
  id="path810"
  style="fill:#ac301f;fill-opacity:1;fill-rule:nonzero;stroke:none"
  d="M 0,0 45,0 45,-39 0,0 Z" />
</g>
</g>
</g>
</g>

<g transform="translate(413.9121,690.0479)">
<g class='rotate'>
<g transform="translate(-15,35)">
<g
  transform="translate(0,0)"
  id="g812"><path
  id="path814"
  style="fill:#a43717;fill-opacity:1;fill-rule:nonzero;stroke:none"
  d="M 0,0 31.466,-33.974 2.024,-61.244 0,0 Z" />
</g>
</g>
</g>
</g>

<g transform="translate(121.7891,475.332)">
<g class='rotate'>
<g transform="translate(-15,35)">
<g
  transform="translate(0,0)"
  id="g816"><path
  id="path818"
  style="fill:#c73514;fill-opacity:1;fill-rule:nonzero;stroke:none"
  d="M 0,0 31.466,-33.973 2.023,-61.244 0,0 Z" />
</g>
</g>
</g>
</g>

<g transform="translate(722.1025,366.8125)">
<g class='rotate'>
<g transform="translate(-15,25)">
<g
  transform="translate(0,0)"
  id="g820"><path
  id="path822"
  style="fill:#8f2202;fill-opacity:1;fill-rule:nonzero;stroke:none"
  d="M 0,0 31.467,-14.397 2.023,-41.667 0,0 Z" />
</g>
</g>
</g>
</g>

<g transform="translate(304.835,640.1992)">
<g class='rotate'>
<g transform="translate(-40,-15)">
<g
  transform="translate(0,0)"
  id="g824"><path
  id="path826"
  style="fill:#dc4a29;fill-opacity:1;fill-rule:nonzero;stroke:none"
  d="M 0,0 43.483,30.378 69.81,-7.308 0,0 Z" />
</g>
</g>
</g>
</g>

<g transform="translate(620.0771,409.6973)">
<g class='rotate'>
<g transform="translate(-30,70)">
<g
  transform="translate(0,0)"
  id="g828"><path
  id="path830"
  style="fill:#4ba59c;fill-opacity:1;fill-rule:nonzero;stroke:none"
  d="M 0,0 0,-86.083 126.02,-141.994 0,0 Z" />
</g>
<g
  transform="translate(0,0)"
  id="g832"><path
  id="path834"
  style="fill:#419189;fill-opacity:1;fill-rule:nonzero;stroke:none"
  d="M 0,0 -46.148,-91.705 0,-86.083 0,0 Z" />
</g>
<g
  transform="translate(-46.1484,-91.7051)"
  id="g836"><path
  id="path838"
  style="fill:#357d76;fill-opacity:1;fill-rule:nonzero;stroke:none"
  d="M 0,0 172.168,-50.289 46.148,8.875 0,0 Z" />
</g>
</g>
</g>
</g>

<g transform="translate(184.8975,271.4883)">
<g class='rotate'>
<g transform="translate(-30,90)">
<g
  transform="translate(0,0)"
  id="g840"><path
  id="path842"
  style="fill:#f05e3d;fill-opacity:1;fill-rule:nonzero;stroke:none"
  d="M 0,0 0,-86.082 126.02,-141.993 0,0 Z" />
</g>
<g
  transform="translate(0,0)"
  id="g844"><path
  id="path846"
  style="fill:#dc4a29;fill-opacity:1;fill-rule:nonzero;stroke:none"
  d="M 0,0 -46.147,-91.704 0,-86.082 0,0 Z" />
</g>
<g
  transform="translate(-46.1475,-91.7041)"
  id="g848"><path
  id="path850"
  style="fill:#ac301f;fill-opacity:1;fill-rule:nonzero;stroke:none"
  d="M 0,0 172.167,-50.289 46.147,8.875 0,0 Z" />
</g>
</g>
</g>
</g>

<g transform="translate(580.4014,288.3291)">
<g class='rotate'>
<g transform="translate(10,90)">
<g
  transform="translate(0,0)"
  id="g852"><path
  id="path854"
  style="fill:#bea84d;fill-opacity:1;fill-rule:nonzero;stroke:none"
  d="M 0,0 -89.283,-60.211 12.176,-59.2 0,0 Z" />
</g>
<g
  transform="translate(-89.2832,-60.2109)"
  id="g856"><path
  id="path858"
  style="fill:#a39041;fill-opacity:1;fill-rule:nonzero;stroke:none"
  d="M 0,0 43.324,-104.456 101.459,1.011 0,0 Z" />
</g>
<g
  transform="translate(0,0)"
  id="g860"><path
  id="path862"
  style="fill:#a39041;fill-opacity:1;fill-rule:nonzero;stroke:none"
  d="M 0,0 92.41,-137.11 12.176,-59.2 0,0 Z" />
</g>
<g
  transform="translate(-45.959,-164.667)"
  id="g864"><path
  id="path866"
  style="fill:#ddc158;fill-opacity:1;fill-rule:nonzero;stroke:none"
  d="M 0,0 138.369,27.557 58.135,105.467 0,0 Z" />
</g>
</g>
</g>
</g>

<g transform="translate(193.8457,452.8115)">
<g class='rotate'>
<g transform="translate(-60,0)">
<g
  transform="translate(0,0)"
  id="g868"><path
  id="path870"
  style="fill:#bea84d;fill-opacity:1;fill-rule:nonzero;stroke:none"
  d="M 0,0 52.67,-46.815 35.547,17.334 0,0 Z" />
</g>
<g
  transform="translate(52.6699,-46.8154)"
  id="g872"><path
  id="path874"
  style="fill:#a39041;fill-opacity:1;fill-rule:nonzero;stroke:none"
  d="M 0,0 59.173,44.433 -17.123,64.149 0,0 Z" />
</g>
<g
  transform="translate(0,0)"
  id="g876"><path
  id="path878"
  style="fill:#a39041;fill-opacity:1;fill-rule:nonzero;stroke:none"
  d="M 0,0 71.896,80.849 35.547,17.334 0,0 Z" />
</g>
<g
  transform="translate(111.8428,-2.3828)"
  id="g880"><path
  id="path882"
  style="fill:#ddc158;fill-opacity:1;fill-rule:nonzero;stroke:none"
  d="M 0,0 -39.946,83.232 -76.296,19.717 0,0 Z" />
</g>
</g>
</g>
</g>

<g transform="translate(296.0801,135.1006)">
<g class='rotate'>
<g transform="translate(-20,-70)">
<g
  transform="translate(0,0)"
  id="g884"><path
  id="path886"
  style="fill:#4ba59c;fill-opacity:1;fill-rule:nonzero;stroke:none"
  d="M 0,0 23.785,68.442 77.397,17.723 0,0 Z" />
</g>
<g
  transform="translate(23.7851,68.4424)"
  id="g888"><path
  id="path890"
  style="fill:#4ba59c;fill-opacity:1;fill-rule:nonzero;stroke:none"
  d="M 0,0 -31.834,62.484 52.127,-6.711 0,0 Z" />
</g>
<g
  transform="translate(75.9121,61.7314)"
  id="g892"><path
  id="path894"
  style="fill:#419189;fill-opacity:1;fill-rule:nonzero;stroke:none"
  d="M 0,0 1.485,-44.009 -52.127,6.711 0,0 Z" />
</g>
<g
  transform="translate(0,0)"
  id="g896"><path
  id="path898"
  style="fill:#357d76;fill-opacity:1;fill-rule:nonzero;stroke:none"
  d="M 0,0 -8.049,130.927 23.785,68.442 0,0 Z" />
</g>
</g>
</g>
</g>

<g transform="translate(566.9404,621.6797)">
<g class='rotate'>
<g transform="translate(-60,-10)">
<g
  transform="translate(0,0)"
  id="g900"><path
  id="path902"
  style="fill:#c73514;fill-opacity:1;fill-rule:nonzero;stroke:none"
  d="M 0,0 79.834,57.282 61.148,-19.959 0,0 Z" />
</g>
<g
  transform="translate(79.834,57.2822)"
  id="g904"><path
  id="path906"
  style="fill:#dc4a29;fill-opacity:1;fill-rule:nonzero;stroke:none"
  d="M 0,0 9.98,-61.718 -18.686,-77.241 0,0 Z" />
</g>
</g>
</g>
</g>

<g transform="translate(645.4873,435.1836)">
<g class='rotate'>
<g transform="translate(-60,-20)">
<g
  transform="translate(0,0)"
  id="g908"><path
  id="path910"
  style="fill:#c73514;fill-opacity:1;fill-rule:nonzero;stroke:none"
  d="M 0,0 79.834,57.282 61.148,-19.961 0,0 Z" />
</g>
<g
  transform="translate(79.834,57.2822)"
  id="g912"><path
  id="path914"
  style="fill:#dc4a29;fill-opacity:1;fill-rule:nonzero;stroke:none"
  d="M 0,0 9.98,-61.718 -18.686,-77.243 0,0 Z" />
</g>
</g>
</g>
</g>

<g transform="translate(156.8477,382.3086)">
<g class='rotate'>
<g transform="translate(80,-10)">
<g
  transform="translate(0,0)"
  id="g916"><path
  id="path918"
  style="fill:#4ba59c;fill-opacity:1;fill-rule:nonzero;stroke:none"
  d="m 0,0 -123.536,62.471 0,-65.314 L 0,0 Z" />
</g>
<g
  transform="translate(0,0)"
  id="g920"><path
  id="path922"
  style="fill:#419189;fill-opacity:1;fill-rule:nonzero;stroke:none"
  d="M 0,0 -153.333,-50.429 -123.536,-2.843 0,0 Z" />
</g>
<g
  transform="translate(-123.5362,62.4707)"
  id="g924"><path
  id="path926"
  style="fill:#357d76;fill-opacity:1;fill-rule:nonzero;stroke:none"
  d="M 0,0 -29.797,-112.899 0,-65.314 0,0 Z" />
</g>
</g>
</g>
</g>

<g transform="translate(170.8311,431.3633)">
<g class='rotate'>
<g transform="translate(-20,15)">
<g
  transform="translate(0,0)"
  id="g928"><path
  id="path930"
  style="fill:#b84b2b;fill-opacity:1;fill-rule:nonzero;stroke:none"
  d="M 0,0 48.196,0 24.098,-44.883 0,0 Z" />
</g>
</g>
</g>
</g>

<g transform="translate(245.6602,642.9873)">
<g class='rotate'>
<g transform="translate(-20,25)">
<g
  transform="translate(0,0)"
  id="g932"><path
  id="path934"
  style="fill:#dc4a29;fill-opacity:1;fill-rule:nonzero;stroke:none"
  d="M 0,0 32.008,0 16.004,-48.367 0,0 Z" />
</g>
</g>
</g>
</g>

<g transform="translate(624.4697,561.1992)">
<g class='rotate'>
<g transform="translate(20,20)">
<g
  transform="translate(0,0)"
  id="g936"><path
  id="path938"
  style="fill:#dc4a29;fill-opacity:1;fill-rule:nonzero;stroke:none"
  d="M 0,0 4.996,-31.615 -45.277,-23.354 0,0 Z" />
</g>
</g>
</g>
</g>

<g transform="translate(232.8174,109.2246)">
<g class='rotate'>
<g transform="translate(20,20)">
<g
  transform="translate(0,0)"
  id="g940"><path
  id="path942"
  style="fill:#dc4a29;fill-opacity:1;fill-rule:nonzero;stroke:none"
  d="M 0,0 4.995,-31.616 -45.277,-23.354 0,0 Z" />
</g>
</g>
</g>
</g>

<g transform="translate(616.6416,124.1338)">
<g class='rotate'>
<g transform="translate(20,30)">
<g
  transform="translate(0,0)"
  id="g944"><path
  id="path946"
  style="fill:#419189;fill-opacity:1;fill-rule:nonzero;stroke:none"
  d="M 0,0 -14.664,-56.308 -50.022,-17.109 0,0 Z" />
</g>
</g>
</g>
</g>

<g transform="translate(576.0322,142.4297)">
<g class='rotate'>
<g transform="translate(25,25)">
<g
  transform="translate(0,0)"
  id="g948"><path
  id="path950"
  style="fill:#ddc158;fill-opacity:1;fill-rule:nonzero;stroke:none"
  d="M 0,0 -14.068,-54.014 -47.982,-16.413 0,0 Z" />
</g>
</g>
</g>
</g>

<g transform="translate(400.376,120.1387)">
<g class='rotate'>
<g transform="translate(10,20)">
<g
  transform="translate(0,0)"
  id="g952"><path
  id="path954"
  style="fill:#8f2202;fill-opacity:1;fill-rule:nonzero;stroke:none"
  d="M 0,0 13.072,-29.217 -37.613,-34.361 0,0 Z" />
</g>
</g>
</g>
</g>

<g transform="translate(179.6777,642.9229)">
<g class='rotate'>
<g transform="translate(30,10)">
<g
  transform="translate(0,0)"
  id="g956"><path
  id="path958"
  style="fill:#ddc158;fill-opacity:1;fill-rule:nonzero;stroke:none"
  d="M 0,0 -41.976,-40.294 -51.574,11.614 0,0 Z" />
</g>
</g>
</g>
</g>

<g transform="translate(149.9287,631.5723)">
<g class='rotate'>
<g transform="translate(25,25)">
<g
  transform="translate(0,0)"
  id="g960"><path
  id="path962"
  style="fill:#357d76;fill-opacity:1;fill-rule:nonzero;stroke:none"
  d="M 0,0 -14.067,-54.014 -47.982,-16.413 0,0 Z" />
</g>
</g>
</g>
</g>

<g transform="translate(173.2734,627.2812)">
<g class='rotate'>
<g transform="translate(10,25)">
<g
  transform="translate(0,0)"
  id="g964"><path
  id="path966"
  style="fill:#b84b2b;fill-opacity:1;fill-rule:nonzero;stroke:none"
  d="M 0,0 13.071,-29.217 -37.614,-34.361 0,0 Z" />
</g>
</g>
</g>
</g>

<g transform="translate(170.7119,539.0137)">
<g class='rotate'>
<g transform="translate(0,0)">
<g
  transform="translate(0,0)"
  id="g968"><path
  id="path970"
  style="fill:#3b9b5d;fill-opacity:1;fill-rule:nonzero;stroke:none"
  d="m 0,0 -57.864,-1.247 41.5,44.041 L 0,0 Z" />
</g>
<g
  transform="translate(-57.8642,-1.2471)"
  id="g972"><path
  id="path974"
  style="fill:#2f8650;fill-opacity:1;fill-rule:nonzero;stroke:none"
  d="M 0,0 90.512,-20.406 57.864,1.247 0,0 Z" />
</g>
<g
  transform="translate(32.6475,-21.6533)"
  id="g976"><path
  id="path978"
  style="fill:#48b26b;fill-opacity:1;fill-rule:nonzero;stroke:none"
  d="M 0,0 -49.012,64.447 -32.647,21.653 0,0 Z" />
</g>
</g>
</g>
</g>

</g>
</svg>